<svg width="193" height="38" viewBox="0 0 193 38" fill="none" xmlns="http://www.w3.org/2000/svg">
<path d="M52.149 0.205687C42.0493 0.185618 33.8862 8.41142 33.8937 18.609C33.8367 21.0334 34.2652 23.4447 35.1535 25.7013C36.0421 27.9575 37.3727 30.0136 39.067 31.7486C40.7616 33.4833 42.7858 34.8618 45.0208 35.803C47.2557 36.744 49.6565 37.2289 52.0813 37.2289C54.5064 37.2289 56.9069 36.744 59.1419 35.803C61.3771 34.8618 63.4013 33.4833 65.0956 31.7486C66.7902 30.0136 68.1208 27.9575 69.0091 25.7013C69.8976 23.4447 70.3259 21.0334 70.2689 18.609C70.284 8.47163 62.1635 0.225756 52.149 0.205687ZM44.4676 11.4243C46.8784 11.1735 48.9982 12.8868 49.234 15.4732C46.3942 13.1151 43.6774 13.1503 40.9555 15.4005C40.8125 13.6595 42.6388 11.625 44.4676 11.4243ZM62.8409 23.9675C61.0999 28.1946 57.2039 30.6355 52.2895 30.6355C47.3751 30.6355 43.6573 28.1996 41.7683 23.7292C41.6228 23.393 41.4447 23.0092 41.4898 22.673C41.5174 22.5017 41.5827 22.3387 41.6813 22.1959C41.7798 22.0531 41.909 21.9341 42.0593 21.8477C42.2281 21.8199 42.4007 21.8323 42.5638 21.8837C42.7269 21.9351 42.8754 22.0242 42.9975 22.1437C43.286 22.4673 43.3989 22.9365 43.5971 23.3403C45.3908 27.0231 48.3184 29.0099 52.4225 28.9773C56.5266 28.9447 59.4191 26.9127 61.1801 23.2199C61.4862 22.5802 61.569 21.4212 62.6602 21.8527C63.8167 22.3168 63.1319 23.2676 62.8409 23.975V23.9675ZM55.6059 15.3177C55.34 13.657 57.2491 11.5548 59.1406 11.4168C61.569 11.2462 63.8468 13.1277 63.8543 15.4532C60.839 13.0399 58.1999 13.2932 55.6059 15.3252V15.3177Z" fill="#F29F05"/>
<path d="M62.8415 23.9751C61.1006 28.2021 57.2046 30.6431 52.2902 30.6431C47.3758 30.6431 43.658 28.2072 41.769 23.7368C41.6235 23.4006 41.4454 23.0168 41.4905 22.6806C41.5181 22.5093 41.5834 22.3463 41.6819 22.2035C41.7805 22.0607 41.9097 21.9417 42.06 21.8553C42.2288 21.8275 42.4014 21.8398 42.5645 21.8913C42.7275 21.9427 42.8761 22.0318 42.9982 22.1513C43.2867 22.4749 43.3996 22.944 43.5978 23.3479C45.3915 27.0306 48.319 29.0175 52.4232 28.9848C56.5273 28.9522 59.4198 26.9202 61.1808 23.2275C61.4869 22.5878 61.5697 21.4288 62.6609 21.8603C63.8174 22.3169 63.1326 23.2676 62.8415 23.9751Z" fill="#2D5FDF"/>
<path d="M63.8544 15.4607C60.844 13.0399 58.1999 13.2932 55.606 15.3252C55.34 13.6645 57.2491 11.5623 59.1406 11.4243C61.569 11.2537 63.8468 13.1352 63.8544 15.4607Z" fill="#2D5FDF"/>
<path d="M49.2392 15.4733C46.3995 13.1152 43.6826 13.1503 40.9607 15.4005C40.8027 13.6595 42.629 11.625 44.4578 11.4243C46.8786 11.166 48.9984 12.8869 49.2392 15.4733Z" fill="#2D5FDF"/>
<path d="M32.5417 29.7223L28.9493 33.3599L26.9424 29.4389H32.3159L32.5417 29.7223Z" fill="#2D5FDF"/>
<path d="M158.353 16.0478C158.411 15.5888 158.456 15.235 158.511 14.8086H161.702V28.1695H158.584C158.506 27.8233 158.421 27.4445 158.333 27.0933C153.567 29.8252 150.024 28.6813 148.133 23.5311C147.047 20.5734 148.296 17.2821 150.619 15.5938C152.872 13.9632 155.385 14.0786 158.353 16.0478ZM158.604 21.4966C158.616 19.2062 157.026 17.5229 154.856 17.5279C152.769 17.5279 151.201 19.2137 151.198 21.4439C151.198 23.7318 152.676 25.3523 154.806 25.3875C157.021 25.4251 158.591 23.8171 158.604 21.4966Z" fill="#F29F05"/>
<path d="M192.737 22.3244H182.328C182.271 25.0513 185.567 26.6669 187.968 25.1767C189.691 24.1106 190.697 24.9936 191.981 25.6484C190.105 28.4079 185.903 29.3561 182.667 27.7807C179.521 26.2454 178.114 22.6229 179.29 19.0807C180.389 15.7719 183.688 13.9205 187.318 14.5777C190.948 15.235 193.123 18.0748 192.995 22.0485L192.737 22.3244ZM182.451 19.6903H189.541C188.871 18.0748 187.604 17.2218 186.029 17.2269C184.335 17.2319 183.134 18.0447 182.441 19.6903H182.451Z" fill="#F29F05"/>
<path d="M86.9011 28.1745H85.0999C85.0999 26.1475 85.115 24.1607 85.0999 22.1788C85.0999 21.0901 85.0748 19.9963 84.967 18.9176C84.7387 16.6398 82.7819 15.4657 80.622 16.276C78.5624 17.0512 77.7647 18.7219 77.6643 20.7539C77.5615 22.8386 77.6091 24.9283 77.5891 27.0256C77.5765 28.3401 77.5489 28.3602 75.9961 28.2096V14.8235H77.5163L77.6593 16.8931C78.9663 15.2851 80.4665 14.3569 82.4257 14.4623C84.385 14.5676 85.7371 15.5761 86.4697 17.5253C86.9047 16.9807 87.367 16.4583 87.8544 15.9599C89.3596 14.5501 91.1558 14.0458 93.1226 14.7558C95.0141 15.4356 95.8595 16.9935 95.9147 18.8875C96.0025 21.9581 95.9372 25.0337 95.9372 28.1695H94.3116C94.3116 25.9117 94.3116 23.6966 94.3116 21.4865C94.3116 20.7615 94.2765 20.0365 94.264 19.309C94.2414 17.9844 93.7899 16.8906 92.5079 16.3312C91.226 15.7718 90.0118 15.98 88.893 16.7451C88.2829 17.1504 87.7829 17.701 87.4385 18.3473C87.0938 18.9936 86.9152 19.7154 86.9187 20.4479C86.8585 22.9741 86.9011 25.5103 86.9011 28.1745Z" fill="#2D5FDF"/>
<path d="M163.819 14.811C167.118 14.5601 167.116 14.5601 168.32 17.3698C169.032 19.0355 169.75 20.6987 170.613 22.7031C171.092 21.5993 171.458 20.764 171.819 19.9236C172.181 19.0832 172.572 18.1675 172.946 17.2995C174.102 14.5902 174.102 14.5902 177.281 14.7909C177.214 15.085 177.131 15.3749 177.03 15.6589C175.402 19.4996 173.743 23.3253 172.156 27.1811C171.827 27.9813 171.403 28.2498 170.56 28.2623C169.717 28.2748 169.373 27.9136 169.077 27.2062C167.369 23.1196 165.621 19.043 163.819 14.811Z" fill="#F29F05"/>
<path d="M137.208 21.5241H125.307C124.998 23.5661 126.202 25.6258 128.139 26.5013C130.633 27.6302 133.086 26.7346 135.447 23.7744L136.701 24.404C135.238 27.7807 131.669 29.3034 128.049 28.167C124.853 27.1636 122.848 23.6514 123.488 20.1393C123.775 18.4642 124.673 16.955 126.009 15.9039C127.344 14.8528 129.022 14.3347 130.718 14.4498C134.476 14.6755 137.012 17.3648 137.208 21.5241ZM135.324 20.0616C134.594 17.2494 132.594 15.8571 129.744 16.0478C128.678 16.1155 127.668 16.5536 126.889 17.2863C126.11 18.0191 125.612 19.0006 125.48 20.0616H135.324Z" fill="#2D5FDF"/>
<path d="M113.089 21.5919C113.061 22.9697 112.627 24.3086 111.842 25.4409C111.056 26.573 109.954 27.4483 108.673 27.9568C107.392 28.4653 105.99 28.5842 104.642 28.2989C103.294 28.0135 102.06 27.3366 101.095 26.353C100.13 25.3691 99.4763 24.1225 99.2169 22.7691C98.9575 21.4157 99.1035 20.0159 99.6363 18.745C100.169 17.4742 101.065 16.3889 102.212 15.6253C103.359 14.8616 104.707 14.4536 106.085 14.4523C110.053 14.4523 113.126 17.5806 113.089 21.5919ZM106.112 16.0428C103.175 16.0428 100.844 18.4235 100.811 21.4439C100.796 24.522 103.054 26.8976 106.002 26.9353C106.717 26.9465 107.428 26.8133 108.091 26.5434C108.754 26.2735 109.356 25.8723 109.861 25.3643C110.365 24.8562 110.761 24.2516 111.026 23.5865C111.291 22.9215 111.419 22.2098 111.403 21.4941C111.383 18.5013 109.007 16.0503 106.117 16.0428H106.112Z" fill="#2D5FDF"/>
<path d="M139.794 28.1068C139.721 28.0014 139.583 27.8986 139.583 27.7932C139.583 23.501 139.583 19.2062 139.583 14.8236H142.29L142.576 15.9876C143.697 14.7759 144.939 14.0158 146.748 14.7885L145.832 17.3147C143.793 17.3322 143.609 17.4853 142.977 19.6151C142.93 19.9713 142.884 20.3275 142.837 20.6838C142.837 23.0469 142.837 25.4092 142.837 27.7706L139.794 28.1068Z" fill="#F29F05"/>
<path d="M117.479 28.1695H115.863V14.8136H117.368C117.419 15.2977 117.471 15.7694 117.542 16.4266C118.944 15.0795 120.283 13.8051 122.378 14.8763C122.07 15.6289 121.876 16.2485 120.783 16.0905C119.559 15.9149 118.66 16.7553 118.274 17.8189C117.846 19.0482 117.59 20.3304 117.511 21.6295C117.389 23.7619 117.479 25.8942 117.479 28.1695Z" fill="#2D5FDF"/>
<path d="M33.8351 9.20043C30.1437 12.5157 26.4437 15.698 22.9188 19.0656C21.3319 20.5817 19.5222 21.4722 17.5235 22.1389C14.9816 22.9868 14.2862 24.4081 15.2073 26.874C15.4951 27.6442 15.7603 28.4241 16.0663 29.187C16.7618 30.917 17.8634 31.5057 19.5998 30.8788C20.6027 30.5163 21.1302 30.7499 21.5294 31.6658C21.8426 32.385 22.2079 33.0827 22.5647 33.7821C22.9202 34.4785 23.2954 35.1636 23.6607 35.8545C18.02 38.4083 7.7681 36.7024 2.57728 27.9299C-2.75457 18.9213 0.46288 7.18464 9.67798 2.1862C18.886 -2.80799 29.4877 1.27031 33.8351 9.20043ZM20.1259 10.7179C19.1794 10.6415 18.2428 11.4583 18.1765 12.4195C18.1131 13.3354 18.9834 14.2852 19.9313 14.3362C20.827 14.3843 21.7057 13.5986 21.7805 12.6842C21.8609 11.7074 21.0936 10.7958 20.1259 10.7179Z" fill="#2D5FDF"/>
<path d="M27.0674 29.6055C28.9867 29.6055 30.736 29.6055 32.485 29.6055C32.5588 29.7005 32.6328 29.7954 32.7065 29.8917C31.5651 31.0454 30.4237 32.1994 29.0863 33.5528C28.348 32.1113 27.7475 30.9363 27.0674 29.6055Z" fill="#2D5FDF"/>
</svg>
